<?xml version="1.0" encoding="UTF-8" standalone="no"?>
<!DOCTYPE svg PUBLIC "-//W3C//DTD SVG 1.1//EN" "http://www.w3.org/Graphics/SVG/1.1/DTD/svg11.dtd">
<svg width="100%" height="100%" viewBox="0 0 1214 1214" version="1.1" xmlns="http://www.w3.org/2000/svg" xmlns:xlink="http://www.w3.org/1999/xlink" xml:space="preserve" xmlns:serif="http://www.serif.com/" style="fill-rule:evenodd;clip-rule:evenodd;stroke-linecap:round;stroke-linejoin:round;stroke-miterlimit:1.5;">
    <g transform="matrix(1,0,0,1,-620.141,-1202.8)">
        <g transform="matrix(1,0,0,1,176.054,378.516)">
            <g>
                <g transform="matrix(1,0,0,1,-431.332,-1190.77)">
                    <circle cx="1482.23" cy="2621.86" r="591.981" style="fill:white;stroke:black;stroke-width:29.66px;"/>
                </g>
                <g transform="matrix(701.579,0,0,701.579,-774818,-715447)">
                    <text x="1105.92px" y="1021.97px" style="font-family:'SimSun';font-size:0.981px;">&quot;</text>
                </g>
                <g transform="matrix(1,0,0,1,-256.076,-361.588)">
                    <path d="M1437.27,2179.91L1437.27,2299.66L1406.61,2299.66L1406.61,2189.3C1373.91,2196.45 1340.7,2200.03 1306.98,2200.03C1193.54,2200.03 1096.97,2160.17 1017.26,2080.46C937.551,2000.75 897.697,1904.18 897.697,1790.75C897.697,1677.32 937.551,1580.74 1017.26,1501.03C1096.97,1421.32 1193.54,1381.47 1306.98,1381.47C1420.41,1381.47 1516.98,1421.39 1596.69,1501.24C1676.4,1581.08 1716.25,1677.82 1716.25,1791.44C1716.25,1880.49 1690.2,1960.59 1638.08,2031.73C1585.96,2102.88 1519.02,2152.27 1437.27,2179.91ZM1406.61,2157.15C1397.38,2061.51 1347.4,1980.1 1256.68,1912.94C1165.95,1845.77 1056.51,1810.66 928.354,1807.61C932.458,1908.35 971.159,1993.83 1044.46,2064.04C1117.76,2134.26 1205.67,2169.37 1308.2,2169.37C1342.03,2169.37 1374.84,2165.3 1406.61,2157.15ZM928.354,1776.19C1060.18,1779.25 1174.64,1816.12 1271.72,1886.78C1368.8,1957.44 1423.47,2044.49 1435.74,2147.91C1509.32,2121.29 1569.35,2075.47 1615.85,2010.44C1662.35,1945.41 1685.6,1872.45 1685.6,1791.54C1685.6,1687.08 1648.55,1597.73 1574.46,1523.49C1500.37,1449.25 1411.21,1412.13 1306.98,1412.13C1264.21,1412.13 1223.99,1418.31 1186.32,1430.69C1133.99,1447.88 1086.58,1477.03 1044.09,1518.11C971.019,1588.77 932.442,1674.79 928.354,1776.19Z" style="fill-rule:nonzero;stroke:black;stroke-width:1px;stroke-linecap:butt;stroke-miterlimit:2;"/>
                </g>
            </g>
        </g>
    </g>
</svg>
