<?xml version="1.0" encoding="utf-8"?>
<svg width="400px" height="400px" viewBox="0 0 400 400" version="1.1" xmlns:xlink="http://www.w3.org/1999/xlink" xmlns="http://www.w3.org/2000/svg">
  <defs>
    <path d="M0 0L400 0L400 400L0 400L0 0Z" id="path_1" />
    <clipPath id="clip_1">
      <use xlink:href="#path_1" />
    </clipPath>
  </defs>
  <g id="quikbitx-logo" clip-path="url(#clip_1)">
    <path d="M0 0L400 0L400 400L0 400L0 0Z" id="quikbitx-logo" fill="none" fill-rule="evenodd" stroke="none" />
    <g id="Group" transform="translate(-0.00035095215 -157781.02)">
      <g id="Group">
        <g id="Group">
          <path d="M0 157981C0 157871 89.5402 157781 199.994 157781C310.447 157781 399.987 157871 399.987 157981C399.987 158091 310.447 158181 199.994 158181C89.5402 158181 0 158091 0 157981Z" id="Group" fill="#000000" fill-rule="evenodd" stroke="none" />
          <path d="M244.013 158112L244.013 158152L233.654 158152L233.654 158115C222.607 158117 211.388 158119 199.996 158119C161.671 158119 129.046 158105 102.117 158078C75.1886 158051 61.7244 158019 61.7244 157980C61.7244 157942 75.1886 157909 102.117 157882C129.046 157856 161.671 157842 199.996 157842C238.317 157842 270.942 157856 297.871 157883C324.8 157910 338.263 157942 338.263 157981C338.263 158011 329.462 158038 311.854 158062C294.246 158086 271.631 158103 244.013 158112L244.013 158112ZM233.654 158104C230.536 158072 213.651 158044 183.002 158022C152.35 157999 115.377 157987 72.0815 157986C73.4679 158020 86.5426 158049 111.306 158073C136.07 158096 165.769 158108 200.408 158108C211.837 158108 222.921 158107 233.654 158104L233.654 158104ZM72.0815 157975C116.617 157976 155.286 157989 188.083 158013C220.881 158037 239.35 158066 243.496 158101C268.354 158092 288.634 158077 304.344 158055C320.053 158033 327.908 158008 327.908 157981C327.908 157945 315.391 157915 290.361 157890C265.33 157865 235.208 157852 199.996 157852C165.469 157852 135.864 157864 111.181 157888C86.4953 157912 73.4625 157941 72.0815 157975L72.0815 157975Z" id="Group" fill="#FFFFFF" fill-rule="evenodd" stroke="none" />
        </g>
      </g>
    </g>
  </g>
</svg>